<?xml version="1.0" encoding="UTF-8" standalone="no"?>
<svg
   xmlns:dc="http://purl.org/dc/elements/1.1/"
   xmlns:cc="http://creativecommons.org/ns#"
   xmlns:rdf="http://www.w3.org/1999/02/22-rdf-syntax-ns#"
   xmlns:svg="http://www.w3.org/2000/svg"
   xmlns="http://www.w3.org/2000/svg"
   xmlns:xlink="http://www.w3.org/1999/xlink"
   id="svg7"
   xml:space="preserve"
   viewBox="0 0 1024 768"
   y="0px"
   x="0px"
   version="1.1"><metadata
     id="metadata13"><rdf:RDF><cc:Work
         rdf:about=""><dc:format>image/svg+xml</dc:format><dc:type
           rdf:resource="http://purl.org/dc/dcmitype/StillImage" /></cc:Work></rdf:RDF></metadata><defs
     id="defs11" /><g
     id="g3"
     transform="matrix(1.5,0,0,1.2,512,384)"><path
       style="fill:#aeaaa5"
       d="m 152.4,-201.9 c 46.6,26 86.9,68.5 97.2,116.9 10.4,48.3 -9.3,102.5 -32.2,150.3 -22.9,47.8 -49,89.1 -85.8,121.8 -36.8,32.8 -84.2,56.8 -135.5,62.2 -51.4,5.4 -106.6,-7.9 -148.6,-38.9 -42,-31 -70.8,-79.8 -87.5,-132.2 -16.8,-52.4 -21.5,-108.6 -2.2,-153.4 19.4,-44.8 62.9,-78.2 107.3,-105 44.4,-26.7 89.6,-46.8 138.7,-52 49.1,-5.3 102,4.2 148.6,30.3 z"
       id="path" /></g><animate
     fill="freeze"
     values="M120.2,-176.8C149.6,-144.2,162.8,-100.7,175.5,-57.9C188.3,-15,200.7,27.1,195.6,70.1C190.6,113,168.2,156.8,132.7,178C97.2,199.1,48.6,197.5,4.9,190.8C-38.8,184.1,-77.6,172.1,-115.3,151.7C-153,131.3,-189.7,102.4,-205.6,64.2C-221.6,26.1,-216.8,-21.4,-204,-67.9C-191.2,-114.4,-170.2,-160,-134.9,-190.6C-99.5,-221.3,-49.8,-237.2,-2.2,-234.2C45.5,-231.2,90.9,-209.5,120.2,-176.8Z; M152.4,-201.9C199,-175.9,239.3,-133.4,249.6,-85C260,-36.7,240.3,17.5,217.4,65.3C194.5,113.1,168.4,154.4,131.6,187.1C94.8,219.9,47.4,243.9,-3.9,249.3C-55.3,254.7,-110.5,241.4,-152.5,210.4C-194.5,179.4,-223.3,130.6,-240,78.2C-256.8,25.8,-261.5,-30.4,-242.2,-75.2C-222.8,-120,-179.3,-153.4,-134.9,-180.2C-90.5,-206.9,-45.3,-227,3.8,-232.2C52.9,-237.5,105.8,-228,152.4,-201.9Z; M101.9,-120.6C144.2,-109.5,199.1,-96,223.6,-62.7C248.2,-29.4,242.5,23.8,220.4,65.3C198.2,106.8,159.7,136.8,120.2,173.1C80.7,209.4,40.4,252.2,-4.7,258.7C-49.8,265.2,-99.5,235.3,-119,192.5C-138.5,149.7,-127.8,93.8,-144.4,46.1C-161,-1.6,-205.1,-41.3,-214.9,-88C-224.7,-134.6,-200.2,-188.3,-158.7,-199.6C-117.2,-210.9,-58.6,-180,-14.4,-160.1C29.8,-140.3,59.6,-131.6,101.9,-120.6Z; M113.1,-161.5C148.6,-129.9,180.8,-99.5,181.6,-66.3C182.3,-33.1,151.5,3.1,132.4,37.1C113.2,71.2,105.7,103.2,85.6,142.9C65.4,182.7,32.7,230.4,-3.9,235.8C-40.6,241.2,-81.1,204.3,-114.7,168.9C-148.3,133.5,-175,99.5,-198.1,57.5C-221.3,15.5,-240.9,-34.6,-221,-64.4C-201.2,-94.2,-141.7,-103.7,-98.3,-132.8C-54.9,-161.8,-27.4,-210.4,5.7,-218.2C38.8,-226.1,77.6,-193.1,113.1,-161.5Z; M102,-143.7C138.9,-113.5,180.3,-92.8,196.8,-59.7C213.4,-26.7,205.1,18.6,190.6,61.5C176.1,104.4,155.4,144.8,122.5,162.7C89.7,180.5,44.9,175.8,-1.2,177.4C-47.2,179,-94.4,187,-113.8,164.8C-133.1,142.5,-124.6,90.1,-143.6,43.8C-162.6,-2.6,-209.2,-42.9,-216.4,-85.7C-223.7,-128.5,-191.5,-173.9,-148.8,-202.2C-106.2,-230.5,-53.1,-241.7,-10.3,-227.6C32.5,-213.4,65,-173.9,102,-143.7Z; M120.2,-176.8C149.6,-144.2,162.8,-100.7,175.5,-57.9C188.3,-15,200.7,27.1,195.6,70.1C190.6,113,168.2,156.8,132.7,178C97.2,199.1,48.6,197.5,4.9,190.8C-38.8,184.1,-77.6,172.1,-115.3,151.7C-153,131.3,-189.7,102.4,-205.6,64.2C-221.6,26.1,-216.8,-21.4,-204,-67.9C-191.2,-114.4,-170.2,-160,-134.9,-190.6C-99.5,-221.3,-49.8,-237.2,-2.2,-234.2C45.5,-231.2,90.9,-209.5,120.2,-176.8Z"
     keySplines="0.9 0.1 0.1 0.9;0.9 0.1 0.1 0.9;0.9 0.1 0.1 0.9;0.9 0.1 0.1 0.9;0.9 0.1 0.1 0.9"
     calcMode="spline"
     keyTimes="0; 0.2; 0.4; 0.6; 0.8; 1"
     attributeName="d"
     repeatCount="indefinite"
     dur="20s"
     attributeType="XML"
     xlink:href="#path" /><path
     id="path5"
     transform="translate(153.6 115.2) scale(0.7)"
     fill="#f3efec"
     d="m241.5 337.98c-0.05 0-0.16 0.03-0.25 0.06s-3.19 0.87-6.89 1.85c-3.7 0.99-7.63 2.04-8.73 2.34-1.1 0.29-3.06 0.82-4.36 1.16-1.3 0.35-2.45 0.66-2.55 0.69-0.1 0.04-0.25 0.11-0.35 0.17-0.12 0.07-2.18 2.12-8.35 8.33-4.5 4.53-8.21 8.29-8.24 8.34-0.03 0.06-0.09 0.15-0.13 0.21-0.04 0.05-0.07 0.14-0.07 0.19s-1.36 5.11-3.01 11.25-3.02 11.22-3.04 11.29c-0.02 0.09-0.02 0.16 0 0.25 0.02 0.07 1.39 5.17 3.04 11.35 1.65 6.17 3.03 11.29 3.06 11.37 0.02 0.08 0.09 0.21 0.14 0.29 0.05 0.09 2.81 2.88 8.32 8.38 6.06 6.07 8.27 8.27 8.38 8.33 0.09 0.05 0.19 0.09 0.22 0.09s0.11 0.02 0.17 0.05c0.06 0.04 5.11 1.41 11.23 3.06l11.13 2.99h0.59l11.21-3.05c6.17-1.68 11.27-3.08 11.33-3.11 0.07-0.03 0.2-0.09 0.29-0.13 0.14-0.07 1.32-1.25 8.42-8.35 6.15-6.16 8.28-8.31 8.36-8.44 0.06-0.1 0.12-0.24 0.14-0.34 0.01-0.09 1.36-5.16 2.99-11.25 1.63-6.1 2.99-11.14 3.01-11.2s0.04-0.18 0.04-0.26-0.02-0.23-0.06-0.33c-0.03-0.09-1.41-5.13-3.06-11.18s-3.03-11.09-3.07-11.19c-0.03-0.1-0.1-0.26-0.16-0.35-0.07-0.11-2.33-2.38-8.33-8.34-4.54-4.51-8.29-8.21-8.35-8.25-0.05-0.03-0.14-0.09-0.2-0.13-0.05-0.03-0.13-0.07-0.18-0.07-0.04 0-5.04-1.33-11.11-2.96-6.06-1.63-11.13-3-11.26-3.04-0.12-0.04-0.27-0.07-0.32-0.07zm0.02 3.37c0.01 0 2.9 3.16 6.41 7.02l6.39 7.02-6.4 0.01h-12.81l-6.41-0.01 6.39-7.02c3.52-3.87 6.41-7.03 6.43-7.02zm-4.03 0.4c0.01 0-2.57 2.85-5.75 6.35-3.17 3.49-5.78 6.33-5.79 6.32s-1.1-1.87-2.42-4.13c-1.31-2.27-2.39-4.12-2.38-4.13s3.69-1 8.17-2.21 8.16-2.2 8.17-2.2zm8.07 0c0.03 0.01 3.71 1 8.17 2.2s8.12 2.19 8.14 2.2c0.01 0.01-1.06 1.87-2.38 4.14-1.32 2.26-2.4 4.12-2.41 4.13-0.02 0.01-2.62-2.83-5.8-6.33-3.18-3.49-5.75-6.34-5.72-6.34zm-26.64 5.69c0.01 0 0.74 1.25 1.63 2.78s1.97 3.39 2.41 4.13c0.43 0.74 0.78 1.36 0.77 1.36-0.01 0.01-3.74 0.83-8.3 1.83s-8.33 1.82-8.38 1.83c-0.07 0.01 1.14-1.22 5.88-5.96 3.29-3.28 5.98-5.97 5.99-5.97zm45.18 0c0.01 0 2.7 2.68 5.99 5.97 3.28 3.28 5.96 5.97 5.94 5.97-0.01 0-3.78-0.82-8.37-1.83-4.6-1-8.36-1.83-8.37-1.84 0 0 0.34-0.62 0.78-1.36 0.43-0.74 1.51-2.6 2.4-4.13s1.63-2.78 1.63-2.78zm141.09 4.72c-0.15 0.01-0.29 0.04-0.43 0.11-0.63 0.18-1.08 0.72-1.08 1.44v59.04c0 0.81 0.72 1.44 1.53 1.44s1.53-0.63 1.53-1.44v-54.45l41.13 55.35c0.27 0.36 0.72 0.54 1.17 0.54h0.54c0.63-0.27 0.99-0.81 0.99-1.44v-59.04c0-0.9-0.63-1.53-1.53-1.53-0.81 0-1.44 0.63-1.44 1.53v54.45l-41.22-55.35c-0.27-0.4-0.74-0.66-1.19-0.65zm-79.29 0.02c-0.81 0-1.53 0.63-1.53 1.53v37.62c0 12.6 10.26 22.86 22.86 22.86 12.69 0 22.95-10.26 22.95-22.86v-37.62c0-0.9-0.72-1.53-1.53-1.53-0.9 0-1.53 0.63-1.53 1.53v37.62c0 10.98-8.91 19.89-19.89 19.89-10.89 0-19.8-8.91-19.8-19.89v-37.62c0-0.9-0.72-1.53-1.53-1.53zm160.8 0c-0.81 0-1.53 0.63-1.53 1.53v59.04c0 0.81 0.72 1.44 1.53 1.44s1.53-0.63 1.53-1.44v-59.04c0-0.9-0.72-1.53-1.53-1.53zm63.36 0c-17.1 0-31.05 13.95-31.05 31.05s13.95 30.96 31.05 30.96c6.93 0 13.32-2.25 18.45-6.12 0.09 0 0.27-0.09 0.36-0.18 0-0.09 0.09-0.09 0.09-0.18 7.38-5.67 12.06-14.49 12.06-24.48 0-17.1-13.86-31.05-30.96-31.05zm62.58 0c-0.81 0-1.53 0.63-1.53 1.53v37.62c0 12.6 10.26 22.86 22.86 22.86 12.69 0 22.95-10.26 22.95-22.86v-37.62c0-0.9-0.72-1.53-1.53-1.53-0.9 0-1.53 0.63-1.53 1.53v37.62c0 10.98-8.91 19.89-19.89 19.89-10.89 0-19.8-8.91-19.8-19.89v-37.62c0-0.9-0.72-1.53-1.53-1.53zm79.31 0c-0.81 0-1.53 0.63-1.53 1.53v59.04c0 0.81 0.72 1.44 1.53 1.44s1.53-0.63 1.53-1.44v-59.04c0-0.9-0.72-1.53-1.53-1.53zm37.54 0c-0.81 0-1.53 0.63-1.53 1.53 0 0.81 0.72 1.53 1.53 1.53h20.25c8.01 0 14.49 6.48 14.49 14.49 0 7.92-6.48 14.49-14.49 14.49h-3.87-0.18-0.09c-0.09 0-0.18 0-0.18 0.09h-0.18s0 0.09-0.09 0.09c0 0-0.09 0-0.09 0.09h-0.09l-0.09 0.09s-0.09 0-0.09 0.09l-0.09 0.09c0 0.09-0.09 0.09-0.09 0.09 0 0.09-0.09 0.09-0.09 0.18 0 0 0 0.09-0.09 0.09v0.18 0.09c-0.09 0.09-0.09 0.18-0.09 0.27v0.09c0 0.09 0 0.09 0.09 0.18v0.09 0.18s0 0.09 0.09 0.09v0.18c0.09 0 0.09 0.09 0.09 0.09l15.48 21.87c2.52 3.6 6.75 5.76 11.16 5.76h55.71c0.9 0 1.53-0.63 1.53-1.44 0-0.9-0.63-1.53-1.53-1.53h-55.71c-3.51 0-6.75-1.71-8.73-4.5l-13.68-19.53h0.9c9.63 0 17.55-7.83 17.55-17.46 0-9.72-7.92-17.55-17.55-17.55h-20.25zm62.91 0c-0.81 0-1.53 0.63-1.53 1.53 0 0.81 0.72 1.53 1.53 1.53h34.56c0.9 0 1.53-0.72 1.53-1.53 0-0.9-0.63-1.53-1.53-1.53h-34.56zm-242.34 3.06c15.39 0 27.99 12.51 27.99 27.99 0 8.64-3.96 16.38-10.17 21.51l-9.99-9.99c-0.63-0.63-1.53-0.63-2.16 0-0.63 0.54-0.63 1.53 0 2.16l9.72 9.72c-4.41 2.88-9.72 4.59-15.39 4.59-15.48 0-27.99-12.6-27.99-27.99 0-15.48 12.51-27.99 27.99-27.99zm-308.49 2.8h13.49l-0.06 0.09c-0.02 0.06-3.07 5.3-6.76 11.65s-6.72 11.55-6.73 11.55-3.03-5.23-6.72-11.63-6.71-11.64-6.71-11.65 6.07-0.01 13.49-0.01zm18.35 0.52s3.83 0.82 8.5 1.82c4.66 1 8.84 1.9 9.28 2 0.54 0.11 0.79 0.18 0.79 0.2-0.01 0.02-1.3 4.08-2.89 9.03-1.58 4.94-2.88 8.99-2.89 8.99 0 0-2.79-4.79-6.19-10.65-3.4-5.85-6.28-10.81-6.4-11.02-0.12-0.2-0.21-0.37-0.2-0.37zm-36.84 0c0.02 0-0.09 0.22-0.25 0.49s-3.03 5.25-6.4 11.06c-3.36 5.82-6.12 10.58-6.13 10.58s-1.31-4.06-2.9-9.01c-1.58-4.96-2.87-9.02-2.87-9.02 0.01-0.01 1.47-0.33 3.26-0.73 1.79-0.39 3.98-0.87 4.86-1.07 0.89-0.19 3.58-0.79 6-1.32 2.42-0.54 4.41-0.98 4.43-0.98zm2.67 0.76c0.01 0 3.22 5.55 7.15 12.32 6.03 10.43 7.12 12.34 7.1 12.39-0.01 0.04-3.22 5.59-7.13 12.35-3.91 6.75-7.11 12.27-7.12 12.27s-3.22-5.52-7.13-12.28c-3.91-6.75-7.12-12.3-7.13-12.34-0.02-0.05 1.07-1.96 7.11-12.39 3.92-6.78 7.14-12.32 7.15-12.32zm31.52 0c0.01 0 3.23 5.55 7.15 12.32 6.04 10.43 7.13 12.34 7.11 12.39-0.02 0.04-3.23 5.59-7.14 12.35-3.9 6.75-7.11 12.27-7.12 12.27s-3.21-5.52-7.12-12.27c-3.91-6.76-7.12-12.31-7.13-12.35-0.03-0.05 1.07-1.95 7.1-12.39 3.93-6.77 7.15-12.32 7.15-12.32zm472.22 0.96c-0.81 0-1.53 0.63-1.53 1.44v51.03c0 0.81 0.72 1.44 1.53 1.44s1.53-0.63 1.53-1.44v-51.03c0-0.81-0.72-1.44-1.53-1.44zm-449.4 6.09c0 0.02 1.07 3.98 2.36 8.82l2.36 8.8-2.36 8.81c-1.3 4.85-2.37 8.8-2.38 8.79s-1.29-3.97-2.84-8.81l-2.83-8.8 2.82-8.77c1.55-4.83 2.83-8.8 2.84-8.83 0.01-0.02 0.02-0.03 0.03-0.01zm-77.13 0.01c0 0.01 1.28 3.98 2.84 8.81l2.82 8.79-2.82 8.8c-1.56 4.83-2.84 8.8-2.84 8.81-0.01 0.01-1.08-3.94-2.38-8.79l-2.36-8.82 2.36-8.81c1.3-4.85 2.36-8.8 2.38-8.79zm589.44 14.33c-0.81 0-1.53 0.72-1.53 1.53s0.72 1.53 1.53 1.53h33.93c0.81 0 1.53-0.72 1.53-1.53s-0.72-1.53-1.53-1.53h-33.93zm-550.89 5.93c0.01 0 3.04 5.23 6.72 11.63 3.69 6.4 6.71 11.64 6.71 11.65s-6.04 0.02-13.43 0.02c-7.38 0-13.43-0.01-13.43-0.02s3.02-5.25 6.71-11.65c3.69-6.39 6.71-11.63 6.72-11.63zm-31.2 0.65c0.01 0 2.89 4.97 6.41 11.05s6.39 11.06 6.39 11.06c-0.01 0.01-1.24-0.25-2.73-0.58-1.5-0.32-4.41-0.94-6.47-1.38-2.05-0.44-5-1.08-6.55-1.41s-2.82-0.6-2.83-0.61c0 0 1.29-4.08 2.88-9.07 1.58-4.99 2.89-9.06 2.9-9.06zm62.41 0c0.01 0 1.31 4.05 2.9 9 1.58 4.96 2.87 9.02 2.87 9.02-0.01 0.01-4.19 0.93-9.29 2.06-5.1 1.12-9.28 2.04-9.28 2.03-0.01 0 2.87-4.98 6.39-11.06 3.51-6.08 6.4-11.05 6.41-11.05zm3.3 21.31c0.02 0-2.65 2.68-5.93 5.96-3.28 3.29-5.98 5.97-5.98 5.97-0.01 0-1.09-1.84-2.4-4.1-1.32-2.25-2.4-4.11-2.41-4.14s0.14-0.07 0.68-0.19c0.38-0.08 4.14-0.9 8.34-1.82 4.21-0.93 7.67-1.68 7.7-1.68zm-68.97 0.01c0.05 0 3.82 0.83 8.38 1.82 4.56 1 8.29 1.82 8.3 1.83s-0.34 0.62-0.77 1.36c-0.44 0.75-1.52 2.6-2.41 4.13s-1.62 2.78-1.63 2.78-2.7-2.68-5.99-5.97c-4.74-4.74-5.95-5.97-5.88-5.95zm366.32 2.23c-0.38 0-0.76 0.16-1.08 0.47-0.63 0.54-0.63 1.53 0 2.16l3.06 2.97c0.27 0.36 0.63 0.45 1.08 0.45 0.36 0 0.72-0.09 1.08-0.45 0.54-0.54 0.54-1.53 0-2.07l-3.06-3.06c-0.31-0.31-0.69-0.47-1.08-0.47zm-344.68 1.72h12.82 12.82l-0.11 0.13c-0.06 0.07-2.94 3.23-6.4 7.03s-6.3 6.91-6.31 6.91-2.84-3.11-6.3-6.91-6.34-6.96-6.41-7.03l-0.11-0.13zm-2.73 0.96l0.08 0.08c0.05 0.05 2.65 2.91 5.78 6.35 3.13 3.45 5.69 6.27 5.69 6.27-0.01 0-3.68-0.99-8.18-2.2-4.49-1.21-8.17-2.2-8.18-2.21s1-1.75 2.24-3.88 2.32-3.99 2.41-4.14l0.16-0.27zm31.12 0.03c0.01 0.01 1.09 1.87 2.41 4.13s2.39 4.12 2.38 4.13c-0.02 0.01-3.68 1.01-8.14 2.21l-8.17 2.2c-0.03 0 2.54-2.85 5.72-6.34 3.17-3.5 5.78-6.34 5.8-6.33z" /></svg>